<svg aria-hidden="true" style="position: absolute; width: 0; height: 0; overflow: hidden;" version="1.1" xmlns="http://www.w3.org/2000/svg" xmlns:xlink="http://www.w3.org/1999/xlink">
<defs>
<symbol id="skills1" viewBox="0 0 32 32">
<path fill="#212121" style="fill: var(--color1, #212121)" d="M30.773 22.098l-8.443-8.505 0.937-4.616c0.225 0.090 0.485 0.144 0.758 0.146h0.033c0 0 0 0 0 0 1.193 0 2.16-0.967 2.16-2.16s-0.967-2.16-2.16-2.16c-1.193 0-2.16 0.967-2.16 2.16 0 0.266 0.048 0.52 0.136 0.755l-0.005-0.015-0.005-0.015-4.96 0.606-8.091-8.133c-0.096-0.098-0.229-0.159-0.376-0.16h-0c-0.146 0.001-0.277 0.060-0.373 0.155l0-0-1.512 1.504c-0.096 0.097-0.155 0.23-0.155 0.377s0.059 0.28 0.155 0.377l-0-0 0.814 0.825c-1.143 2.062-1.816 4.522-1.816 7.139 0 4.106 1.656 7.824 4.336 10.525l-0.001-0.001c0.041 0.040 0.090 0.072 0.143 0.096l0.003 0.001c-0.033 0.164-0.051 0.353-0.052 0.546v6.188h-6.4c-1.472 0.001-2.665 1.194-2.667 2.666v1.067c0 0.295 0.239 0.534 0.534 0.534h24.534c0.294-0.001 0.533-0.239 0.533-0.534 0 0 0 0 0 0v0-1.067c-0.002-1.471-1.195-2.664-2.666-2.666h-6.4v-2.742c0.919 0.203 1.974 0.319 3.057 0.319 2.608 0 5.057-0.675 7.184-1.86l-0.075 0.038-0.077 0.039 0.818 0.823c0.096 0.098 0.229 0.159 0.376 0.16h0c0.146-0.001 0.277-0.060 0.373-0.155l-0 0 1.512-1.504c0.096-0.097 0.155-0.23 0.155-0.377s-0.059-0.28-0.155-0.377l0 0zM23.28 6.233c0.193-0.193 0.46-0.312 0.754-0.312 0.589 0 1.067 0.478 1.067 1.067s-0.478 1.067-1.067 1.067c-0.001 0-0.001 0-0.002 0h-0.004c-0.587-0.003-1.061-0.479-1.061-1.066 0-0.295 0.12-0.563 0.314-0.756l0-0h-0.002zM22.024 9.737l-0.598 2.946-1.175-1.183 1.774-1.763zM21.419 8.835l-1.92 1.909-1.486-1.493 3.406-0.416zM24.004 28.8c0.884 0 1.6 0.716 1.6 1.6v0 0.534h-23.466v-0.534c0-0.884 0.716-1.6 1.6-1.6h20.267zM16.538 26.666v1.067h-5.334v-1.067h5.334zM11.204 25.6v-4.053c0-1.294 1.196-2.346 2.667-2.346s2.667 1.053 2.667 2.346v4.053h-5.334zM17.604 23.904v-2.357c0-1.882-1.675-3.413-3.733-3.413h-0.058c-1.353 0-2.54 0.707-3.213 1.771l-0.009 0.016c-2.36-2.474-3.812-5.832-3.812-9.529 0-0.007 0-0.014 0-0.022v0.001c0-2.314 0.567-4.496 1.569-6.414l-0.036 0.077 18.602 18.709c-1.823 0.947-3.979 1.502-6.266 1.502-1.079 0-2.128-0.124-3.136-0.357l0.093 0.018zM28.893 23.22l-21.057-21.181 0.754-0.752 7.935 7.98c0.004 0 0.006 0.007 0.010 0.010l13.114 13.191-0.757 0.752z"></path>
<path fill="#2196f3" style="fill: var(--color2, #2196f3)" d="M13.876 20.267h-0.007c-0 0-0.001 0-0.002 0-0.884 0-1.6 0.716-1.6 1.6s0.716 1.599 1.598 1.6h0.007c0 0 0.001 0 0.001 0 0.884 0 1.6-0.716 1.6-1.6s-0.716-1.599-1.599-1.6h-0zM14.249 22.245c-0.097 0.096-0.23 0.156-0.377 0.156-0.295 0-0.534-0.239-0.534-0.534s0.239-0.534 0.533-0.534h0c0.294 0.001 0.531 0.239 0.531 0.533 0 0.148-0.060 0.281-0.157 0.378l-0 0h0.005z"></path>
</symbol>
<symbol id="skills4" viewBox="0 0 32 32">
<path fill="#2196f3" style="fill: var(--color2, #2196f3)" d="M31.974 4.524c-0.064-0.19-0.226-0.33-0.424-0.362l-0.003-0h-0.003l-1.911-0.278-0.855-1.731c-0.179-0.365-0.777-0.365-0.956 0l-0.855 1.731-1.911 0.278c-0.26 0.039-0.456 0.261-0.456 0.528 0 0.149 0.061 0.285 0.16 0.382l0 0 1.383 1.348-0.326 1.903c-0.005 0.028-0.008 0.060-0.008 0.092 0 0.294 0.238 0.532 0.532 0.532 0.092 0 0.178-0.023 0.253-0.064l-0.003 0.001 1.709-0.899 1.709 0.899c0.072 0.038 0.157 0.060 0.247 0.060 0.295 0 0.534-0.239 0.534-0.534 0-0.032-0.003-0.064-0.008-0.095l0 0.003v0.003l-0.326-1.903 1.383-1.348c0.099-0.097 0.161-0.233 0.161-0.382 0-0.060-0.010-0.118-0.028-0.171l0.001 0.004 0.001 0.004zM29.511 5.851c-0.099 0.096-0.161 0.231-0.161 0.38 0 0.032 0.003 0.064 0.008 0.095l-0-0.003 0.191 1.114-1-0.526c-0.072-0.040-0.158-0.063-0.25-0.063s-0.179 0.024-0.254 0.066l0.003-0.001 0.003-0.001-1 0.526 0.191-1.114c0.005-0.028 0.008-0.060 0.008-0.092 0-0.149-0.061-0.283-0.16-0.379l-0-0-0.811-0.79 1.119-0.162c0.177-0.026 0.324-0.137 0.401-0.289l0.001-0.003 0.5-1.013 0.5 1.013c0.078 0.155 0.224 0.266 0.399 0.292l0.003 0 1.119 0.162-0.809 0.79zM26.134 20.522h-1.067v1.067h1.067v-1.067zM26.134 22.656h-1.067v1.066h1.067v-1.066zM27.2 21.589h-1.067v1.067h1.067v-1.067zM25.067 21.589h-1.067v1.067h1.067v-1.067zM22.4 26.389h-1.067v1.067h1.067v-1.067zM22.4 28.523h-1.067v1.067h1.067v-1.067zM23.467 27.456h-1.067v1.067h1.067v-1.067zM21.334 27.456h-1.067v1.067h1.067v-1.067zM16 24.256h-1.066v1.067h1.066v-1.067zM16 26.389h-1.066v1.067h1.066v-1.067zM17.067 25.322h-1.067v1.067h1.067v-1.067zM14.934 25.322h-1.067v1.067h1.067v-1.067zM5.867 6.122h-1.066v1.066h1.066v-1.066zM5.867 8.256h-1.066v1.066h1.066v-1.066zM6.933 7.189h-1.067v1.067h1.066v-1.067zM4.8 7.189h-1.067v1.067h1.067v-1.067z"></path>
<path fill="#212121" style="fill: var(--color1, #212121)" d="M24.715 14.16c-0.278-0.374-0.693-0.633-1.169-0.702l-0.010-0.001-0.009-0.001c-0.077-0.012-0.166-0.019-0.257-0.019-0.412 0-0.791 0.141-1.091 0.377l0.004-0.003 0.004-0.003-1.253 0.96-1.898 1.417-1.358-0.541c2.421-1.086 4.113-3.508 4.113-6.32 0-3.823-3.122-6.934-6.961-6.934s-6.961 3.11-6.961 6.934c0 1.386 0.415 2.674 1.12 3.759l-2.768-0.024c-0.009 0-0.016 0.005-0.023 0.005-0.058 0.003-0.112 0.015-0.162 0.034l0.003-0.001 0.004-0.001c-0.013 0.005-0.026 0.007-0.038 0.013-0.006 0.003-0.013 0.003-0.019 0.006l-3.234 1.597-1.893 0.91c-0.025 0.012-0.047 0.024-0.067 0.037l0.002-0.001 0.001-0.001c-0.482 0.324-0.795 0.867-0.795 1.484 0 0.3 0.074 0.584 0.206 0.832l-0.005-0.010-0.005-0.010c0.22 0.424 0.592 0.742 1.043 0.885l0.013 0.003c0.161 0.053 0.346 0.084 0.539 0.084 0.311 0 0.604-0.080 0.858-0.221l-0.009 0.005-0.009 0.005 1.388-0.738 2.264-1.169 1.357-0.008-6.782 6.749c-0.303 0.298-0.491 0.713-0.491 1.171 0 0.001 0 0.001 0 0.002v-0 0.005c0.002 0.919 0.748 1.663 1.667 1.664h0.002c0.001 0 0.002 0 0.003 0 0.459 0 0.875-0.185 1.177-0.485l-0 0 1.314-1.309 1.741-1.3 0.901 0.897-3.102 3.088c-0.303 0.298-0.491 0.713-0.491 1.171 0 0.001 0 0.001 0 0.002v-0 0.004c0 0.001 0 0.001 0 0.002 0 0.918 0.744 1.662 1.662 1.662 0.001 0 0.003 0 0.004 0h0.003c0.001 0 0.002 0 0.003 0 0.459 0 0.875-0.185 1.177-0.485l-0 0 4.488-4.472c0.007-0.006 0.016-0.009 0.022-0.016l5.166-5.658 3.471 0.494c0.023 0.004 0.049 0.006 0.076 0.006 0.067 0 0.131-0.014 0.189-0.039l-0.003 0.001c0.017-0.006 0.032-0.015 0.049-0.023 0.019-0.010 0.039-0.015 0.058-0.027l3.213-2.133c0.012-0.008 0.018-0.021 0.029-0.030 0.013-0.010 0.029-0.014 0.041-0.026l1.271-1.191c0.348-0.326 0.564-0.787 0.564-1.3 0-0.4-0.132-0.769-0.355-1.066l0.003 0.005zM2.13 17.77c-0.098 0.055-0.215 0.087-0.339 0.087-0.080 0-0.158-0.013-0.23-0.038l0.005 0.002 0.005 0.001c-0.294-0.094-0.502-0.365-0.502-0.684 0-0.234 0.112-0.442 0.285-0.573l0.002-0.001 0.002-0.001 1.314-0.632 0.449 1.313-0.992 0.527zM5.627 15.942l-1.548 0.8-0.255-0.746-0.184-0.537 2.027-1.001-0.040 1.484zM20.727 9.322c0 0.918-0.219 1.785-0.599 2.56l-4.181-1.899c-0.044-0.573-0.34-1.068-0.776-1.38l-0.006-0.004-0.006-0.004 1.464-4.861c2.377 0.757 4.104 2.975 4.104 5.588zM8.938 9.322c0-3.235 2.644-5.867 5.894-5.867 0.253 0 0.5 0.022 0.745 0.053l-1.432 4.753c-0.019 0-0.037-0.006-0.057-0.006h-0.001c0 0 0 0 0 0-1.032 0-1.869 0.835-1.872 1.867v0c0.003 1.031 0.84 1.866 1.872 1.867h0.001c0.695 0 1.295-0.383 1.618-0.944l3.863 1.755c-1.085 1.457-2.802 2.39-4.737 2.39h-0c-3.25 0-5.894-2.632-5.894-5.867zM14.895 10.122c0 0.441-0.362 0.8-0.806 0.8h-0.001c0 0 0 0 0 0-0.443 0-0.802-0.358-0.804-0.8v-0c0-0.441 0.361-0.8 0.806-0.8s0.806 0.359 0.806 0.8zM2.464 25.146c-0.11 0.109-0.261 0.177-0.428 0.177s-0.317-0.067-0.427-0.176l0 0c-0.109-0.107-0.177-0.257-0.177-0.422s0.068-0.315 0.177-0.422l0-0 0.962-0.959 0.852 0.848-0.959 0.954zM5.678 28.88c-0.11 0.109-0.261 0.177-0.428 0.177s-0.317-0.067-0.427-0.176l0 0c-0.109-0.107-0.177-0.257-0.177-0.422s0.068-0.315 0.177-0.422l0-0 0.963-0.959 0.852 0.848-0.96 0.955zM9.16 25.411l-0.001 0.001-1.765 1.76-0.852-0.848 1.765-1.757c0.036-0.039 0.066-0.084 0.089-0.133l0.001-0.003c0.007-0.014 0.020-0.026 0.026-0.040 0.016-0.041 0.019-0.085 0.026-0.128 0.003-0.025 0.014-0.048 0.014-0.073 0-0.035-0.013-0.070-0.020-0.105-0.006-0.032-0.006-0.064-0.019-0.096-0.025-0.053-0.056-0.098-0.092-0.138l0 0c-0.010-0.012-0.014-0.026-0.025-0.038h-0.001l-0.001-0.002-1.607-1.6c-0.017-0.017-0.039-0.024-0.058-0.038-0.025-0.020-0.052-0.039-0.081-0.055l-0.003-0.001-0.003-0.001c-0.025-0.012-0.055-0.022-0.086-0.030l-0.004-0.001-0.003-0.001c-0.029-0.009-0.064-0.016-0.099-0.020l-0.002-0h-0.025c-0.027 0-0.053 0.002-0.078 0.005l0.003-0h0.003c-0.036 0.005-0.069 0.009-0.104 0.021s-0.064 0.027-0.094 0.045c-0.020 0.011-0.043 0.015-0.061 0.029l-1.774 1.324-0.901-0.897 2.399-2.386 4.36 4.289-0.928 0.919zM15.979 18.394c-0.016-0.002-0.030 0.004-0.046 0.003l-0.027-0.001c-0.033 0-0.064 0.003-0.095 0.009l0.003-0h0.003c-0.070 0.011-0.134 0.036-0.189 0.071l0.002-0.001 0.002-0.001c-0.031 0.018-0.059 0.039-0.083 0.061l0-0c-0.013 0.011-0.028 0.016-0.040 0.029l-4.698 5.146-4.328-4.256 2.833-2.818c0.095-0.097 0.154-0.229 0.154-0.376 0-0.295-0.238-0.534-0.532-0.535h-0.002l-2.219 0.013 0.028-1.607 3.104 0.027c1.26 1.297 3.021 2.101 4.97 2.101 0.003 0 0.006 0 0.009 0h0.003c0.438 0 0.864-0.046 1.28-0.122 0.040 0.032 0.080 0.064 0.129 0.085l2.41 0.96 0.152 0.758 0.178 0.886-3.003-0.427zM20.020 18.572l-0.313-1.558 1.446-1.080 0.946 1.257-2.080 1.381zM23.773 15.741l-0.837 0.785-0.931-1.236 0.831-0.637c0.122-0.093 0.277-0.15 0.445-0.15 0.035 0 0.069 0.002 0.102 0.007l-0.004-0c0.352 0.049 0.62 0.348 0.621 0.71v0c0 0 0 0.001 0 0.002 0 0.205-0.087 0.389-0.226 0.519l-0 0z"></path>
<path fill="#212121" style="fill: var(--color1, #212121)" d="M13.602 18.544l-2.143-2.134c-0.096-0.097-0.229-0.156-0.376-0.156s-0.28 0.060-0.376 0.156l-0 0-2.143 2.133c-0.097 0.097-0.156 0.23-0.156 0.378s0.060 0.281 0.156 0.378v0l2.142 2.134c0.096 0.097 0.229 0.156 0.376 0.156s0.28-0.060 0.376-0.156l0-0 2.143-2.134c0.097-0.096 0.158-0.23 0.158-0.378s-0.060-0.282-0.158-0.378l-0-0zM11.083 20.303l-1.387-1.381 1.386-1.381 1.387 1.381-1.387 1.381zM17.164 5.071l-0.258 1.036c0.071 0.018 1.738 0.452 1.738 2.149h1.067c0-2.017-1.666-2.965-2.547-3.184zM19.711 9.322h-1.067v1.066h1.067v-1.066z"></path>
</symbol>
<symbol id="skills2" viewBox="0 0 32 32">
<path fill="#212121" style="fill: var(--color1, #212121)" d="M31.296 15.301c-0.001-8.452-6.855-15.303-15.308-15.301s-15.303 6.855-15.301 15.308c0.002 6.788 4.422 12.543 10.541 14.545l0.108 0.031c0.057 0.018 0.122 0.028 0.19 0.028 0.125 0 0.242-0.034 0.342-0.094l-0.003 0.002c0.134-0.080 0.234-0.204 0.282-0.352l0.001-0.005 3.865-12.25c1.053-0.005 1.904-0.859 1.904-1.913 0-1.057-0.856-1.913-1.913-1.913-0.307 0-0.597 0.072-0.855 0.201l0.022-0.010-5.106-5.107c-0.114-0.109-0.269-0.176-0.44-0.176-0.352 0-0.638 0.286-0.638 0.638 0 0.171 0.067 0.326 0.176 0.44l-0-0 5.103 5.109c-0.12 0.239-0.191 0.52-0.191 0.818 0 0.003 0 0.006 0 0.008v-0c0 0.602 0.283 1.137 0.723 1.48l0.004 0.003-3.682 11.673c-7.278-2.681-11.004-10.754-8.324-18.032s10.754-11.004 18.032-8.323c7.278 2.681 11.004 10.754 8.323 18.032-1.345 3.581-4.003 6.406-7.374 7.938l-0.088 0.036-0.398-1.874c-0.064-0.291-0.319-0.505-0.625-0.505-0.164 0-0.313 0.061-0.426 0.163l0.001-0.001 0.001-0.001-3.837 3.426c-0.132 0.117-0.215 0.287-0.215 0.477 0 0.282 0.183 0.521 0.437 0.605l0.005 0.001 0.005 0.001 4.899 1.563c0.059 0.020 0.126 0.031 0.196 0.031 0.352 0 0.637-0.285 0.637-0.637 0-0.049-0.006-0.096-0.016-0.142l0.001 0.004 0.001 0.004-0.391-1.839c5.528-2.374 9.329-7.772 9.329-14.057v-0.032zM15.992 14.664c0.352 0 0.638 0.286 0.638 0.638s-0.286 0.638-0.638 0.638v0c-0.352 0-0.638-0.286-0.638-0.638s0.286-0.638 0.638-0.638v0zM18.092 29.528l2.184-1.948 0.603 2.84-2.787-0.892z"></path>
<path fill="#2196f3" style="fill: var(--color2, #2196f3)" d="M15.354 3.185v1.275c0 0.352 0.286 0.638 0.638 0.638s0.638-0.286 0.638-0.638v0-1.275c0-0.352-0.286-0.638-0.638-0.638s-0.638 0.286-0.638 0.638v0zM3.876 14.664c-0.352 0-0.638 0.286-0.638 0.638s0.286 0.638 0.638 0.638h1.275c0.352 0 0.638-0.286 0.638-0.638s-0.286-0.638-0.638-0.638h-1.275zM28.108 15.939c0.352 0 0.638-0.286 0.638-0.638s-0.286-0.638-0.638-0.638h-1.275c-0.352 0-0.638 0.286-0.638 0.638s0.286 0.638 0.638 0.638h1.275z"></path>
</symbol>
<symbol id="skills3" viewBox="0 0 32 32">
<path fill="#2196f3" style="fill: var(--color2, #2196f3)" d="M14.926 14.965h1.066v4.798h-1.066v-4.798zM19.19 17.097h1.066v2.665h-1.066v-2.665zM10.661 18.696h1.066v1.066h-1.066v-1.066zM7.463 18.163h1.066v1.599h-1.066v-1.599z"></path>
<path fill="#212121" style="fill: var(--color1, #212121)" d="M1.599 28.291h25.586c0.883-0.001 1.598-0.716 1.599-1.599v-2.132c-0.001-0.883-0.716-1.598-1.599-1.599h-0.533v-13.294l3.028-2.868c0.207 0.104 0.451 0.165 0.71 0.165 0.888 0 1.608-0.72 1.608-1.608s-0.72-1.608-1.608-1.608c-0.888 0-1.608 0.72-1.608 1.608 0 0.251 0.058 0.489 0.16 0.7l-0.004-0.010-0.004-0.010-2.281 2.162v-1.23c-0.001-0.883-0.716-1.598-1.599-1.599h-21.323c-0.883 0.001-1.598 0.716-1.599 1.599v15.992h-0.533c-0.883 0.001-1.598 0.716-1.599 1.599v2.132c0.001 0.883 0.716 1.598 1.599 1.599h0zM30.384 4.837c0.294 0 0.533 0.239 0.533 0.533s-0.239 0.533-0.533 0.533v0c-0.294 0-0.533-0.239-0.533-0.533s0.239-0.533 0.533-0.533v0zM3.198 6.969c0-0.294 0.239-0.533 0.533-0.533h21.323c0.294 0 0.533 0.239 0.533 0.533v2.239l-1.066 1.013v-2.185c0-0.295-0.239-0.534-0.534-0.534v0h-19.189c0 0 0 0 0 0-0.295 0-0.533 0.239-0.534 0.533v13.327c0 0.294 0.239 0.533 0.534 0.533h19.189c0 0 0 0 0 0 0.295 0 0.533-0.238 0.534-0.533v-9.675l1.066-1.010v12.283h-22.389v-15.991zM7.996 13.899h-0.005c-0.001 0-0.002 0-0.003 0-0.884 0-1.6 0.716-1.6 1.6s0.716 1.6 1.6 1.6c0.434 0 0.827-0.172 1.115-0.452l-0 0 1.853 0.93c0.069 0.035 0.151 0.056 0.238 0.056 0.158 0 0.3-0.068 0.398-0.177l0-0 3.939-4.432 3.872 2.902c0.088 0.066 0.199 0.106 0.32 0.106 0.142 0 0.271-0.055 0.366-0.146l-0 0 3.365-3.188v8.131h-18.123v-12.261h18.123v2.661l-3.771 3.572-3.904-2.927c-0.088-0.067-0.2-0.107-0.32-0.107-0.158 0-0.3 0.068-0.397 0.177l-0 0.001v0.001l-3.993 4.493-1.493-0.746c0.011-0.064 0.017-0.128 0.020-0.193-0.001-0.883-0.716-1.598-1.599-1.599h-0zM8.529 15.498c0 0.294-0.239 0.533-0.533 0.533s-0.533-0.239-0.533-0.533v0c0-0.294 0.239-0.533 0.533-0.533s0.533 0.239 0.533 0.533v0zM11.727 24.026h5.33v0.533c0 0.294-0.239 0.533-0.533 0.533v0h-4.265c-0.294 0-0.533-0.239-0.533-0.533v0-0.533zM1.067 24.56c0-0.294 0.238-0.533 0.533-0.533h9.062v0.533c0.001 0.883 0.716 1.598 1.599 1.599h4.265c0.883-0.001 1.598-0.716 1.599-1.599v-0.533h9.062c0.294 0 0.533 0.239 0.533 0.533v2.132c0 0.294-0.239 0.533-0.533 0.533v0h-25.586c-0.294 0-0.533-0.239-0.533-0.533v0-2.132z"></path>
</symbol>
<symbol id="facebook" viewBox="0 0 18 32">
<path d="M13.328 5.312h2.923v-5.088c-1.212-0.143-2.615-0.224-4.038-0.224-0.025 0-0.049 0-0.074 0h-0.144c-4.213 0-7.099 2.65-7.099 7.52v4.48h-4.646v5.688h4.646v14.312h5.698v-14.31h4.462l0.707-5.69h-5.168v-3.92c0-1.643 0.443-2.768 2.734-2.768z"></path>
</symbol>
<symbol id="group1" viewBox="0 0 28 32">
<path d="M4.085 0l4.771 4.517-8.857-0.005v21.915h23.149v-8.379l4.766 4.512v-22.559h-23.83zM22.939 17.517l-13.528-12.807h13.528v12.807zM18.739 23.22h-15.076v-14.738h1.066v13.74h14.011v0.997zM7.224 29.345l-0.557 1.147-0.557-1.147h-0.467l0.813 1.529v0.891h0.422v-0.891l0.811-1.529h-0.465zM7.924 31.765l0.196-0.564h0.938l0.197 0.564h0.439l-0.916-2.42h-0.378l-0.914 2.42h0.437zM8.588 29.859l0.351 1.004h-0.701l0.351-1.004zM10.806 30.804c-0.057 0.085-0.091 0.189-0.091 0.301 0 0.001 0 0.001 0 0.002v-0 0.004c0 0.204 0.072 0.37 0.214 0.497s0.336 0.19 0.575 0.19c0.007 0 0.016 0 0.024 0 0.223 0 0.43-0.073 0.596-0.197l-0.003 0.002 0.136 0.161h0.468l-0.355-0.421c0.14-0.191 0.209-0.435 0.209-0.733h-0.351c0 0.004 0 0.008 0 0.012 0 0.157-0.037 0.306-0.104 0.437l0.003-0.006-0.468-0.552 0.165-0.12c0.099-0.067 0.182-0.15 0.247-0.246l0.002-0.003 0.002-0.003c0.048-0.078 0.076-0.172 0.076-0.273 0-0.001 0-0.001 0-0.002v0-0.013c0-0 0-0.001 0-0.002 0-0.148-0.065-0.281-0.168-0.372l-0.001-0h-0.001c-0.108-0.097-0.251-0.157-0.408-0.157h-0.024c-0.195 0-0.35 0.056-0.465 0.166s-0.173 0.259-0.173 0.449c0 0.078 0.018 0.157 0.054 0.241 0.038 0.083 0.104 0.184 0.197 0.302-0.179 0.129-0.3 0.24-0.36 0.334zM11.898 31.34c-0.104 0.084-0.237 0.135-0.382 0.136h-0.020c-0 0-0 0-0.001 0-0.104 0-0.199-0.040-0.27-0.106l0 0c-0.067-0.065-0.108-0.156-0.108-0.257 0-0.001 0-0.001 0-0.002v0-0.013c0-0.129 0.067-0.245 0.2-0.346l0.052-0.037 0.528 0.624zM11.464 30.267c-0.114-0.141-0.172-0.257-0.172-0.351 0-0.081 0.024-0.148 0.070-0.201 0.044-0.049 0.107-0.081 0.178-0.081h0.018c0.067 0 0.127 0.026 0.173 0.068 0.044 0.039 0.072 0.096 0.072 0.16 0 0 0 0.001 0 0.001v-0 0.009c-0 0.090-0.040 0.171-0.103 0.226l-0 0-0.052 0.041-0.184 0.127zM15.404 31.582c0.166-0.145 0.261-0.347 0.286-0.605h-0.419c-0.022 0.173-0.075 0.296-0.158 0.37s-0.208 0.112-0.372 0.112c-0.18 0-0.318-0.069-0.412-0.206s-0.14-0.337-0.14-0.599v-0.214c0.003-0.259 0.052-0.453 0.15-0.587 0.091-0.123 0.235-0.202 0.398-0.202 0.008 0 0.017 0 0.025 0.001l-0.001-0c0.157 0 0.276 0.039 0.357 0.116s0.133 0.202 0.153 0.376h0.419c-0.027-0.265-0.121-0.47-0.285-0.615s-0.378-0.218-0.645-0.218c-0.005-0-0.011-0-0.017-0-0.188 0-0.363 0.053-0.512 0.145l0.004-0.002c-0.15 0.097-0.268 0.231-0.343 0.39l-0.002 0.006-0.002 0.006c-0.077 0.168-0.122 0.364-0.122 0.571 0 0.002 0 0.004 0 0.006v-0 0.255c0.003 0.223 0.045 0.418 0.125 0.587s0.193 0.298 0.339 0.39c0.14 0.086 0.31 0.136 0.492 0.136 0.007 0 0.014-0 0.021-0l-0.001 0c0.276 0 0.497-0.072 0.663-0.216zM17.875 31.243c0.082-0.18 0.123-0.388 0.123-0.625v-0.158c0-0.216-0.047-0.421-0.131-0.605l0.004 0.009c-0.077-0.169-0.197-0.307-0.346-0.404l-0.004-0.002-0.004-0.002c-0.152-0.095-0.326-0.143-0.524-0.143s-0.372 0.048-0.525 0.144c-0.155 0.101-0.277 0.241-0.352 0.408l-0.002 0.006c-0.079 0.175-0.125 0.38-0.125 0.595v0.166c0.001 0.232 0.043 0.436 0.126 0.613 0.078 0.171 0.201 0.311 0.352 0.409l0.004 0.002c0.145 0.090 0.321 0.143 0.51 0.143 0.005 0 0.011-0 0.016-0h-0.001c0.006 0 0.012 0 0.018 0 0.188 0 0.363-0.053 0.512-0.146l-0.004 0.002c0.154-0.101 0.275-0.241 0.35-0.407l0.002-0.006zM17.425 29.874c0.102 0.143 0.152 0.349 0.152 0.618v0.126c0 0.272-0.050 0.48-0.151 0.622-0.089 0.13-0.237 0.214-0.405 0.214-0.009 0-0.017-0-0.026-0.001l0.001 0h-0.017c-0.17-0-0.321-0.085-0.412-0.214l-0.001-0.002-0.001-0.002c-0.104-0.145-0.155-0.351-0.155-0.617v-0.14c0.002-0.26 0.054-0.462 0.156-0.603 0.091-0.13 0.24-0.215 0.409-0.215h0.017c0.187 0 0.33 0.072 0.431 0.214z"></path>
</symbol>
<symbol id="group2" viewBox="0 0 25 32">
<path d="M10.532 1.806h-0.084c-0.108-0.006-0.243-0.012-0.379-0.014l-0.009-0h-0.28c-0.244 0-0.494 0.006-0.741 0.018l-0.028-0.001-0.029 0.001h0.001c-2.415 0.138-4.657 0.749-6.678 1.741l0.102-0.045 0.104-0.045-0.266 0.128v13.626l0.623-0.212c0.404-0.148 0.982-0.323 1.569-0.477l0.162-0.036c1.488-0.398 3.202-0.638 4.967-0.661h0.014v1.79c-0.223 0.001-0.439 0.007-0.655 0.018h-0.052c-1.448 0.081-2.806 0.302-4.111 0.651l0.14-0.032 0.139-0.031c-1.771 0.448-3.324 1.075-4.764 1.88l0.098-0.050 0.1-0.051v-17.475c1.343-0.805 2.895-1.463 4.54-1.893l0.252-0.056c1.353-0.369 2.906-0.581 4.509-0.582h0.268c0.314 0.008 0.622 0.022 0.91 0.044 0.829 0.060 1.597 0.187 2.339 0.378l-0.090-0.020v1.762c-0.616-0.154-1.345-0.27-2.092-0.324l-0.042-0.002-0.045-0.003-0.044-0.004c-0.152-0.013-0.304-0.026-0.446-0.026zM13.633 3.607c0.391 0.030 0.796 0.044 1.205 0.044 1.737-0.005 3.418-0.238 5.017-0.67l-0.136 0.031-0.135 0.030c1.771-0.45 3.324-1.077 4.764-1.882l-0.099 0.051-0.101 0.051v17.163c-1.342 0.804-2.895 1.462-4.539 1.893l-0.125 0.028-0.127 0.028c-1.353 0.367-2.907 0.579-4.51 0.581h-0.116c-1.177 0-2.319-0.147-3.409-0.425l0.095 0.021v-17.275c0.265 0.062 0.537 0.118 0.814 0.164 0.455 0.077 0.934 0.133 1.401 0.167zM22.367 3.74l-0.623 0.209c-0.572 0.193-1.151 0.365-1.731 0.518-1.551 0.415-3.332 0.657-5.169 0.663h-0.004c-0.406 0-0.78-0.011-1.141-0.034l-0.497-0.033v14.017l0.426 0.037c0.395 0.035 0.803 0.052 1.214 0.052 1.491-0.005 2.934-0.207 4.305-0.58l-0.116 0.027-0.116 0.026c1.257-0.317 2.351-0.724 3.384-1.233l-0.099 0.044-0.102 0.044 0.266-0.128v-13.63zM1.684 25.977c-0.167-0.173-0.401-0.281-0.66-0.281-0 0-0.001 0-0.001 0h0l-0.034 0.001h-0.012c-0.139 0-0.272 0.028-0.393 0.078l0.007-0.003c-0.234 0.094-0.417 0.277-0.508 0.506l-0.002 0.006-0.002 0.006c-0.045 0.11-0.071 0.237-0.071 0.371 0 0.005 0 0.011 0 0.016v-0.001 2.335c-0.006 0.164 0.026 0.328 0.092 0.479 0.055 0.12 0.135 0.226 0.234 0.313 0.089 0.075 0.197 0.133 0.314 0.165l0.006 0.001c0.114 0.031 0.231 0.048 0.349 0.048 0.536-0.010 0.966-0.445 0.968-0.982v-0.261h-0.611v0.222c0 0.070-0.013 0.136-0.037 0.198l0.001-0.004c-0.021 0.052-0.051 0.096-0.089 0.132l-0 0c-0.070 0.054-0.158 0.088-0.255 0.089h-0c-0.011 0.001-0.024 0.002-0.037 0.002-0.102 0-0.193-0.050-0.249-0.126l-0.001-0.001-0.001-0.001c-0.051-0.082-0.082-0.182-0.082-0.288 0-0 0-0 0-0.001v0l0.001-0.024v0.001-2.177c-0-0.007-0-0.015-0-0.024 0-0.118 0.028-0.23 0.077-0.33l-0.002 0.004c0.056-0.087 0.152-0.143 0.261-0.143 0 0 0.001 0 0.001 0h-0l0.038 0.002h0.011c0.107 0 0.201 0.052 0.26 0.131l0.001 0.001c0.063 0.082 0.101 0.186 0.101 0.299 0 0 0 0.001 0 0.001v-0 0.215h0.604v-0.249c0-0.143-0.027-0.28-0.077-0.405l0.003 0.007c-0.048-0.128-0.117-0.237-0.205-0.329l0 0zM5.31 25.951c-0.183-0.16-0.425-0.258-0.689-0.258-0.132 0-0.259 0.024-0.376 0.069l0.007-0.002c-0.249 0.090-0.447 0.272-0.555 0.505l-0.002 0.006-0.002 0.006c-0.056 0.127-0.089 0.274-0.089 0.43 0 0.008 0 0.016 0 0.023l-0-0.001v2.239c-0.004 0.158 0.026 0.314 0.089 0.458 0.057 0.124 0.137 0.228 0.235 0.312l0.001 0.001c0.090 0.084 0.197 0.15 0.315 0.195l0.007 0.002c0.108 0.041 0.233 0.065 0.364 0.065 0.267 0 0.511-0.1 0.696-0.264l-0.001 0.001-0.001 0.001c0.096-0.086 0.173-0.19 0.228-0.307l0.002-0.006c0.063-0.144 0.093-0.301 0.089-0.458v-2.259c0-0.156-0.033-0.305-0.092-0.439l0.003 0.007c-0.057-0.128-0.135-0.236-0.23-0.327l-0-0zM5.025 28.969l0.002 0.035c0 0 0 0.001 0 0.001 0 0.113-0.047 0.215-0.123 0.288l-0 0c-0.077 0.065-0.178 0.105-0.287 0.105s-0.21-0.040-0.288-0.106l0.001 0.001 0.001 0.001c-0.076-0.073-0.123-0.175-0.123-0.288 0-0.014 0.001-0.027 0.002-0.040l-0 0.002v0.002-2.239l-0.001-0.034c0-0 0-0 0-0 0-0.113 0.047-0.216 0.123-0.288l0-0c0.077-0.065 0.178-0.105 0.287-0.105s0.21 0.040 0.288 0.106l-0.001-0.001-0.001-0.001c0.076 0.073 0.123 0.175 0.123 0.288 0 0.014-0.001 0.027-0.002 0.040l0-0.002v-0.002 2.24zM10.072 29.969v-4.24h-0.586l-0.771 2.244h-0.010l-0.777-2.244h-0.58v4.239h0.606v-2.578h0.011l0.593 1.823h0.302l0.598-1.823h0.010v2.578h0.606zM13.513 26.027c-0.091-0.103-0.206-0.182-0.336-0.23l-0.006-0.002c-0.123-0.042-0.264-0.066-0.411-0.066-0.002 0-0.004 0-0.006 0h-0.923v4.24h0.604v-1.656h0.311c0.189 0.009 0.376-0.031 0.545-0.116 0.137-0.077 0.248-0.186 0.327-0.316l0.002-0.004 0.002-0.004c0.067-0.106 0.115-0.23 0.137-0.363l0.001-0.006c0.021-0.133 0.033-0.287 0.033-0.444v-0.038c0.001-0.021 0.001-0.045 0.001-0.070 0-0.19-0.022-0.375-0.063-0.553l0.003 0.016c-0.043-0.153-0.12-0.284-0.223-0.39l0 0zM13.201 27.319c-0.003 0.082-0.024 0.159-0.058 0.227l0.001-0.003 0.001-0.003c-0.035 0.064-0.088 0.115-0.152 0.146l-0.002 0.001-0.002 0.001c-0.074 0.034-0.161 0.054-0.252 0.054-0.001 0-0.001 0-0.002 0h0l-0.033-0.001h-0.274v-1.441h0.311l0.029-0.001c0.088 0 0.172 0.020 0.247 0.055l-0.004-0.002c0.062 0.036 0.11 0.089 0.14 0.152l0.001 0.002 0.001 0.002c0.032 0.069 0.051 0.15 0.053 0.235l0 0.001v0.282c0 0.098 0.006 0.201 0 0.291h-0.006zM16.374 25.729h-0.495l-0.934 4.24h0.604l0.177-0.911h0.823l0.178 0.911h0.604l-0.958-4.24zM15.817 28.481l0.297-1.537h0.011l0.295 1.537h-0.604zM20.277 28.283h-0.011l-0.912-2.554h-0.581v4.24h0.604v-2.55h0.012l0.923 2.549h0.568v-4.239h-0.604v2.554zM23.968 25.729l-0.486 1.686h-0.012l-0.486-1.686h-0.639l0.83 2.448v1.791h0.604v-1.791l0.83-2.447h-0.64zM0 31.166h0.291v0.817h0.198v-0.817h0.289v-0.167h-0.778v0.168zM2.447 30.998l-0.382 0.985h0.21l0.081-0.224h0.392l0.084 0.224h0.215l-0.391-0.985h-0.21zM2.417 31.593l0.134-0.365 0.134 0.365h-0.268zM4.866 31.62h0.228v0.127c-0.064 0.051-0.145 0.082-0.234 0.083h-0.014c-0.079-0-0.149-0.037-0.195-0.093l-0-0c-0.046-0.065-0.073-0.145-0.073-0.232 0-0.001 0-0.001 0-0.002v0l0.001-0.023v0.001c0-0.219 0.095-0.329 0.283-0.329l0.021-0.001c0.097 0 0.178 0.067 0.201 0.157v0.001l0.194-0.038c-0.042-0.192-0.18-0.289-0.417-0.289h-0.013c-0 0-0.001 0-0.001 0-0.127 0-0.243 0.048-0.33 0.127l0-0c-0.088 0.087-0.143 0.208-0.143 0.341 0 0.014 0.001 0.027 0.002 0.040l-0-0.002v-0.002 0.023c0 0.132 0.048 0.254 0.127 0.347l-0.001-0.001c0.087 0.090 0.209 0.146 0.343 0.146l0.032-0.001h0.015c0.155 0 0.296-0.060 0.402-0.157v-0.388h-0.426v0.166zM7.337 30.998h-0.199v0.985h0.689v-0.167h-0.49v-0.817zM9.426 30.998h-0.199v0.985h0.199v-0.985zM11.469 31.655l-0.404-0.657h-0.193v0.985h0.185v-0.643l0.396 0.643h0.198v-0.985h-0.182v0.658zM13.315 31.549h0.49v-0.167h-0.49v-0.215h0.527v-0.168h-0.727v0.985h0.747v-0.167h-0.548v-0.266zM17.792 31.386h-0.388v-0.388h-0.197v0.984h0.197v-0.431h0.388v0.431h0.198v-0.985h-0.198v0.388zM19.649 31.549h0.492v-0.167h-0.492v-0.215h0.529v-0.168h-0.726v0.985h0.746v-0.167h-0.548v-0.266zM22.168 31.55c0.171-0.027 0.258-0.118 0.258-0.274 0.001-0.009 0.002-0.020 0.002-0.031 0-0.078-0.038-0.146-0.097-0.188l-0.001-0h-0.001c-0.073-0.037-0.158-0.059-0.249-0.059-0 0-0.001 0-0.001 0h0l-0.040 0.001h-0.415v0.984h0.198v-0.412h0.055c0.039 0 0.076 0.008 0.109 0.023l-0.002-0.001c0.029 0.018 0.053 0.042 0.069 0.071l0.001 0.001 0.215 0.313h0.236l-0.12-0.192c-0.054-0.095-0.126-0.174-0.213-0.233l-0.002-0.002-0.002-0.002zM21.969 31.413h-0.146v-0.247h0.156c0.013-0.001 0.028-0.002 0.044-0.002 0.058 0 0.113 0.009 0.165 0.027l-0.004-0.001-0.004-0.001c0.026 0.024 0.043 0.058 0.043 0.096 0 0.042-0.020 0.080-0.051 0.104l-0 0c-0.048 0.016-0.104 0.025-0.162 0.025-0.001 0-0.001 0-0.002 0h0l-0.039-0.001h0.002zM24.068 31.549h0.49v-0.167h-0.49v-0.215h0.529v-0.168h-0.729v0.985h0.747v-0.167h-0.548v-0.266z"></path>
</symbol>
<symbol id="group3" viewBox="0 0 34 32">
<path d="M5.643 31.315c0.012 0 0.024 0.003 0.035 0.008s0.021 0.011 0.030 0.018l0.166 0.158c-0.13 0.129-0.289 0.232-0.468 0.302-0.182 0.069-0.393 0.109-0.613 0.109-0.002 0-0.005 0-0.007 0h0l-0.045-0.001h0.002c-0.011 0-0.024 0-0.036 0-0.21 0-0.411-0.037-0.598-0.105l0.012 0.004c-0.182-0.066-0.339-0.164-0.471-0.287l0.001 0.001 0.001 0.001c-0.126-0.119-0.228-0.263-0.298-0.424l-0.003-0.008-0.003-0.008c-0.067-0.161-0.106-0.347-0.106-0.543 0-0.002 0-0.004 0-0.006v0-0.046c0-0.388 0.168-0.737 0.436-0.977l0.001-0.001c0.14-0.122 0.306-0.22 0.487-0.284l0.011-0.003c0.185-0.064 0.399-0.101 0.621-0.101 0.007 0 0.014 0 0.022 0h0.039c0.199 0 0.39 0.034 0.568 0.096l-0.012-0.004c0.165 0.062 0.316 0.149 0.447 0.255l-0.139 0.169c-0.010 0.012-0.021 0.022-0.034 0.030l-0.001 0h-0.001c-0.014 0.008-0.030 0.013-0.048 0.013h-0.008c-0.023-0.001-0.044-0.007-0.063-0.018l0.001 0h0.001l-0.074-0.046-0.104-0.058c-0.093-0.045-0.201-0.080-0.314-0.099l-0.007-0.001-0.007-0.001c-0.067-0.011-0.144-0.018-0.222-0.018-0.003 0-0.006 0-0.008 0h-0.033c-0.16 0-0.313 0.028-0.455 0.079l0.009-0.003c-0.14 0.050-0.261 0.122-0.364 0.215l0.001-0.001 0.001-0.001c-0.099 0.093-0.179 0.206-0.233 0.333l-0.002 0.006c-0.054 0.126-0.085 0.273-0.085 0.427 0 0.002 0 0.003 0 0.005v-0 0.035c0 0.157 0.031 0.307 0.088 0.444l-0.003-0.008c0.105 0.258 0.312 0.456 0.569 0.546l0.007 0.002c0.136 0.049 0.281 0.073 0.427 0.072 0.085 0.001 0.17-0.004 0.254-0.014 0.211-0.022 0.4-0.106 0.55-0.234l-0.001 0.001c0.021-0.017 0.048-0.028 0.078-0.029h0zM10.441 30.517v0.017c0 0.197-0.041 0.384-0.116 0.553l0.003-0.009c-0.074 0.171-0.179 0.316-0.31 0.434l-0.001 0.001-0.001 0.001c-0.138 0.123-0.302 0.22-0.481 0.283l-0.010 0.003c-0.189 0.064-0.407 0.101-0.633 0.101-0.231 0-0.453-0.038-0.659-0.109l0.014 0.004 0.014 0.004c-0.189-0.068-0.351-0.165-0.49-0.289l0.001 0.001 0.001 0.001c-0.131-0.118-0.237-0.262-0.31-0.424l-0.003-0.008-0.003-0.008c-0.072-0.166-0.113-0.359-0.113-0.562 0-0.207 0.043-0.403 0.121-0.581l-0.004 0.009-0.004 0.010c0.071-0.165 0.178-0.315 0.316-0.442 0.137-0.119 0.3-0.213 0.478-0.274l0.010-0.003c0.189-0.065 0.407-0.103 0.633-0.103 0.231 0 0.453 0.039 0.659 0.111l-0.014-0.004-0.014-0.004c0.184 0.065 0.351 0.162 0.49 0.286 0.262 0.238 0.427 0.58 0.427 0.961 0 0.014-0 0.027-0.001 0.041l0-0.002zM10.005 30.517v-0.024c0-0.001 0-0.001 0-0.002 0-0.156-0.030-0.305-0.085-0.442l0.003 0.008 0.003 0.008c-0.101-0.257-0.305-0.455-0.559-0.546l-0.007-0.002-0.007-0.002c-0.137-0.047-0.295-0.074-0.46-0.074-0.168 0-0.329 0.028-0.479 0.081l0.010-0.003 0.010-0.003c-0.137 0.049-0.254 0.122-0.352 0.214l0.001-0c-0.096 0.091-0.171 0.201-0.221 0.325l-0.002 0.006-0.002 0.006c-0.050 0.134-0.080 0.289-0.080 0.451 0 0.165 0.030 0.323 0.086 0.469l-0.006-0.018c0.101 0.261 0.309 0.46 0.569 0.547l0.007 0.002c0.296 0.097 0.622 0.097 0.918 0 0.136-0.047 0.253-0.119 0.351-0.211l-0.001 0c0.095-0.093 0.171-0.206 0.22-0.332l0.002-0.006c0.056-0.145 0.082-0.298 0.079-0.451zM13.715 30.99l0.043 0.101c0.017-0.036 0.031-0.069 0.048-0.101 0.019-0.039 0.037-0.072 0.056-0.103l-0.002 0.004 1.061-1.677c0.021-0.029 0.040-0.047 0.061-0.053s0.047-0.009 0.073-0.009h0.328v2.728h-0.372v-2.090c-0.001-0.014-0.002-0.031-0.002-0.048s0.001-0.034 0.002-0.050l-0 0.002v0.002l-1.069 1.701c-0.015 0.026-0.036 0.047-0.061 0.061l-0.001 0h-0.001c-0.026 0.014-0.057 0.023-0.090 0.023h-0.064c-0 0-0.001 0-0.001 0-0.033 0-0.063-0.009-0.090-0.023l0.001 0h0.001c-0.026-0.014-0.047-0.035-0.061-0.060l-0-0.001v-0.001l-1.099-1.711v2.189h-0.359v-2.722h0.328c0.026 0 0.051 0.003 0.075 0.010h-0.002c0.026 0.011 0.046 0.030 0.058 0.053l1.084 1.678c0.020 0.028 0.038 0.060 0.053 0.094l0.001 0.004zM17.71 30.855v1.021h-0.414v-2.723h0.926c0.175-0.003 0.349 0.018 0.517 0.059 0.134 0.034 0.259 0.091 0.366 0.17 0.089 0.070 0.159 0.16 0.205 0.262l0.002 0.004c0.050 0.111 0.073 0.23 0.071 0.349v0.017c0 0 0 0.001 0 0.001 0 0.245-0.117 0.462-0.297 0.6l-0.002 0.001-0.002 0.001c-0.104 0.080-0.227 0.142-0.361 0.178l-0.007 0.002c-0.14 0.040-0.301 0.064-0.468 0.064h-0.035l-0.501-0.008zM17.71 30.562h0.503c0.109 0.002 0.218-0.013 0.322-0.041 0.090-0.026 0.168-0.067 0.235-0.12l-0.002 0.001-0.002 0.001c0.117-0.096 0.191-0.241 0.191-0.404 0-0 0-0 0-0v0-0.007l0.001-0.029c0-0.001 0-0.002 0-0.002 0-0.070-0.016-0.136-0.044-0.195l0.001 0.003 0.001 0.003c-0.035-0.074-0.084-0.135-0.143-0.184l-0.001-0.001-0.001-0.001c-0.138-0.093-0.309-0.149-0.492-0.149-0.025 0-0.049 0.001-0.073 0.003l0.003-0h-0.5v1.122zM23.294 31.88h-0.334c-0 0-0.001 0-0.002 0-0.032 0-0.061-0.010-0.085-0.026l0 0h0.001c-0.023-0.016-0.041-0.037-0.054-0.061l-0-0.001v-0.001l-0.282-0.658h-1.419l-0.293 0.658c-0.026 0.052-0.079 0.088-0.14 0.088-0 0-0 0-0.001 0h-0.333l1.246-2.728h0.432l1.263 2.728zM21.237 30.867h1.172l-0.494-1.11c-0.033-0.070-0.065-0.155-0.091-0.243l-0.003-0.013-0.048 0.142c-0.015 0.046-0.030 0.084-0.048 0.121l-0.488 1.103zM25.089 29.166c0.025 0.012 0.045 0.028 0.062 0.048l0 0 1.818 2.056v-2.117h0.372v2.728h-0.212c-0 0-0 0-0 0-0.029 0-0.058-0.006-0.083-0.018l0.001 0.001h0.001c-0.026-0.013-0.048-0.030-0.066-0.050l-0-0-1.816-2.054 0.001 0.047-0.002 0.049v-0.002 2.027h-0.372v-2.728h0.22c0.025 0 0.051 0.005 0.075 0.013zM30.402 30.795v1.083h-0.415v-1.082l-1.149-1.643h0.381c0.030 0 0.058 0.009 0.082 0.023l-0.001-0h-0.001c0.022 0.017 0.041 0.038 0.055 0.061l0.001 0.001 0.718 1.060c0.049 0.069 0.092 0.149 0.125 0.233l0.003 0.008 0.053-0.117c0.021-0.043 0.044-0.084 0.071-0.124l0.709-1.067c0.015-0.022 0.033-0.041 0.053-0.058l0-0c0.023-0.017 0.051-0.027 0.082-0.027 0 0 0 0 0 0h0.384l-1.15 1.65zM13.509 24.576c0.181 0.020 0.363 0.036 0.549 0.050 2.803-1.090 5.174-2.872 6.818-5.126s2.485-4.878 2.421-7.546l-3.090-2.683c0.629 2.84 0.335 5.775-0.848 8.478s-3.208 5.067-5.849 6.827z"></path>
<path d="M12.407 24.451l0.083 0.015c2.822-1.755 4.973-4.203 6.176-7.031s1.402-5.904 0.571-8.83l-4.4-3.822c1.779 3.142 2.496 6.659 2.065 10.141-0.43 3.482-1.989 6.786-4.495 9.528zM27.328 15.106c-0.747 2.931-2.563 5.574-5.177 7.538-0.687 0.526-1.462 1.020-2.278 1.447l-0.089 0.043-0.092 0.043c2.129-0.543 4.085-1.504 5.718-2.808s2.901-2.917 3.703-4.714l-1.784-1.549z"></path>
<path d="M26.628 14.674l-2.54-2.207c-0.049 2.517-0.872 4.976-2.385 7.122s-3.66 3.902-6.217 5.084h0.012c0.57 0 1.139-0.030 1.705-0.088 2.39-0.848 4.502-2.197 6.146-3.926s2.771-3.785 3.278-5.985zM12.774 3.17l-3.031-2.636c-2.709 0.91-5.039 2.509-6.686 4.588s-2.531 4.542-2.539 7.066c0.010 2.789 1.090 5.495 3.070 7.69 1.979 2.194 4.744 3.754 7.858 4.43 2.779-2.942 4.407-6.578 4.646-10.379s-0.924-7.57-3.319-10.758zM33.63 14.268c-0.011-3.308-1.528-6.478-4.221-8.818s-6.342-3.658-10.15-3.668h-0.028c-1.831 0-3.59 0.305-5.231 0.867l0.114-0.034 18.556 16.122c0.605-1.313 0.958-2.849 0.96-4.468v-0.001z"></path>
</symbol>
<symbol id="group4" viewBox="0 0 65 32">
<path d="M10.016 9.983h-0.002c-1.827 0-3.308 1.316-3.308 2.94v0.002c0 1.624 1.481 2.94 3.308 2.94h0.002c1.827 0 3.308-1.317 3.308-2.94v-0.002c0-1.624-1.481-2.941-3.308-2.941zM34.434 9.044c-0.005-2.255-1.016-4.418-2.81-6.012s-4.226-2.493-6.763-2.498c-2.539 0.004-4.972 0.902-6.767 2.497s-2.806 3.757-2.811 6.013v12.437s19.15-1.896 19.152-12.434v-0.002zM0 25.562c0.005 1.57 0.709 3.073 1.957 4.183s2.94 1.735 4.706 1.739c1.765-0.005 3.457-0.63 4.706-1.739s1.952-2.613 1.957-4.181v-8.654s-13.324 1.32-13.324 8.652zM6.662 27.112c-0.345 0-0.682-0.091-0.969-0.261-0.276-0.163-0.494-0.397-0.634-0.677l-0.004-0.009-0.004-0.009c-0.083-0.174-0.132-0.377-0.132-0.593 0-0.11 0.013-0.218 0.037-0.321l-0.002 0.009-0.002 0.009c0.075-0.319 0.244-0.591 0.475-0.793l0.002-0.002c0.24-0.212 0.54-0.362 0.871-0.421l0.011-0.002 0.011-0.002c0.103-0.019 0.222-0.031 0.343-0.031 0.244 0 0.477 0.045 0.692 0.127l-0.013-0.004-0.013-0.004c0.319 0.117 0.592 0.316 0.783 0.571s0.294 0.555 0.294 0.861c0.001 0.204-0.043 0.407-0.131 0.596-0.094 0.197-0.22 0.365-0.374 0.502l-0.002 0.001-0.002 0.001c-0.16 0.142-0.348 0.257-0.555 0.334l-0.012 0.004c-0.197 0.075-0.425 0.119-0.663 0.119-0.002 0-0.003 0-0.005 0h-0.001v-0.006zM20.128 26.258h-1.286v1.328h-0.67v-3.251h2.117v0.542h-1.447v0.84h1.286v0.54zM23.346 26.035c0 0.32-0.056 0.6-0.169 0.841s-0.276 0.427-0.488 0.558c-0.197 0.124-0.437 0.197-0.694 0.197-0.002 0-0.003 0-0.004 0h-0.024c-0.27 0-0.51-0.065-0.722-0.194-0.211-0.133-0.377-0.318-0.484-0.538l-0.003-0.008-0.003-0.008c-0.112-0.233-0.177-0.508-0.177-0.797 0-0.003 0-0.005 0-0.008v0-0.187c0-0.32 0.058-0.602 0.172-0.844 0.206-0.45 0.653-0.758 1.172-0.758 0.014 0 0.028 0 0.042 0.001l-0.002-0c0.271 0 0.51 0.066 0.721 0.197 0.211 0.13 0.374 0.316 0.489 0.56 0.116 0.242 0.174 0.523 0.174 0.841v0.145zM22.668 25.887c0-0.341-0.061-0.6-0.183-0.777-0.108-0.161-0.29-0.266-0.496-0.266h-0l-0.028 0.001h0.001l-0.025-0.001c-0.205 0-0.385 0.103-0.493 0.26l-0.001 0.002-0.001 0.002c-0.122 0.174-0.184 0.43-0.185 0.768v0.158c0 0.331 0.061 0.589 0.183 0.772s0.297 0.274 0.527 0.274l0.026 0.001c0 0 0 0 0 0 0.203 0 0.382-0.103 0.488-0.259l0.001-0.002 0.001-0.002c0.12-0.177 0.181-0.434 0.183-0.773v-0.158zM25.518 26.733l0.001-0.019c0-0 0-0 0-0 0-0.11-0.052-0.207-0.132-0.269l-0.001-0.001-0.001-0.001c-0.089-0.069-0.25-0.14-0.482-0.214-0.221-0.068-0.41-0.147-0.589-0.241l0.019 0.009 0.019 0.009c-0.37-0.2-0.554-0.469-0.554-0.806 0-0.175 0.049-0.332 0.147-0.469 0.109-0.144 0.253-0.255 0.42-0.322l0.007-0.002c0.186-0.077 0.395-0.116 0.625-0.116 0.232 0 0.439 0.042 0.621 0.127 0.175 0.078 0.318 0.199 0.419 0.351l0.002 0.004c0.095 0.143 0.152 0.319 0.152 0.508 0 0.005-0 0.009-0 0.014v-0.001h-0.67c0-0.008 0.001-0.017 0.001-0.026 0-0.127-0.054-0.24-0.14-0.32l-0-0c-0.094-0.084-0.226-0.125-0.395-0.125-0.164 0-0.291 0.035-0.382 0.105-0.083 0.060-0.136 0.156-0.136 0.264 0 0 0 0 0 0.001v-0 0.008c0 0.106 0.053 0.194 0.158 0.266 0.107 0.071 0.264 0.138 0.471 0.2 0.381 0.114 0.658 0.257 0.833 0.427s0.261 0.381 0.261 0.634c0 0.281-0.107 0.503-0.32 0.663s-0.498 0.239-0.859 0.239c-0.25 0-0.478-0.046-0.683-0.137-0.192-0.082-0.35-0.21-0.467-0.37l-0.002-0.003-0.002-0.003c-0.1-0.149-0.16-0.333-0.16-0.531 0-0.001 0-0.001 0-0.002v0-0.021h0.671c0 0.358 0.214 0.538 0.643 0.538 0.011 0.001 0.023 0.001 0.036 0.001 0.125 0 0.241-0.036 0.34-0.099l-0.003 0.002c0.081-0.058 0.134-0.153 0.134-0.259v-0.012zM29.092 24.878h-0.995v2.708h-0.67v-2.708h-0.981v-0.542h2.647v0.542zM31.431 26.178h-1.285v0.871h1.509v0.538h-2.178v-3.251h2.174v0.542h-1.505v0.775h1.286v0.524zM33.25 26.396h-0.533v1.19h-0.67v-3.251h1.208c0.384 0 0.68 0.086 0.888 0.257s0.312 0.413 0.312 0.725c0 0.011 0.001 0.024 0.001 0.037 0 0.192-0.054 0.371-0.148 0.523l0.002-0.004c-0.106 0.154-0.252 0.275-0.423 0.348l-0.006 0.002-0.006 0.002 0.702 1.328v0.030h-0.718l-0.61-1.189zM32.717 25.854h0.541c0.168 0 0.297-0.042 0.39-0.126 0.086-0.084 0.139-0.2 0.139-0.329 0-0 0-0 0-0.001v0l-0.001-0.026v0.001c0-0.154-0.043-0.274-0.131-0.362s-0.219-0.132-0.4-0.132h-0.538v0.975zM36.775 26.441v1.145h-0.67v-3.251h1.268c0.244 0 0.459 0.045 0.643 0.134 0.18 0.084 0.326 0.215 0.427 0.378l0.002 0.004c0.099 0.164 0.149 0.35 0.149 0.56 0 0.318-0.11 0.57-0.328 0.754-0.218 0.183-0.519 0.275-0.904 0.275h-0.587zM36.775 25.899h0.598c0.178 0 0.312-0.042 0.404-0.125 0.087-0.083 0.142-0.2 0.142-0.33 0-0.010-0-0.019-0.001-0.029l0 0.001 0.001-0.024c0-0 0-0.001 0-0.001 0-0.14-0.054-0.267-0.141-0.362l0 0c-0.095-0.094-0.226-0.152-0.371-0.152-0.006 0-0.013 0-0.019 0l0.001-0h-0.614v1.021zM41.011 26.178h-1.285v0.871h1.509v0.538h-2.178v-3.251h2.174v0.542h-1.505v0.775h1.286v0.524zM44.119 24.878h-0.996v2.708h-0.67v-2.708h-0.982v-0.542h2.648v0.542zM46.458 26.178h-1.285v0.871h1.509v0.538h-2.179v-3.251h2.174v0.542h-1.504v0.775h1.285v0.524zM48.277 26.396h-0.533v1.19h-0.67v-3.251h1.208c0.384 0 0.68 0.086 0.888 0.257s0.312 0.413 0.312 0.725c0 0.222-0.049 0.408-0.145 0.556-0.107 0.154-0.252 0.274-0.423 0.348l-0.006 0.002-0.006 0.002 0.703 1.328v0.030h-0.718l-0.61-1.189zM47.744 25.854h0.54c0.168 0 0.298-0.042 0.39-0.126 0.086-0.084 0.139-0.2 0.139-0.329 0-0.001 0-0.001 0-0.002v0l-0.001-0.025v0.001c0.001-0.009 0.001-0.019 0.001-0.029 0-0.129-0.051-0.247-0.133-0.333l0 0c-0.086-0.088-0.219-0.132-0.399-0.132h-0.538v0.975zM51.679 26.734l0.001-0.019c0-0 0-0 0-0 0-0.11-0.052-0.208-0.133-0.27l-0.001-0.001-0.001-0.001c-0.089-0.069-0.25-0.14-0.482-0.214-0.221-0.068-0.41-0.147-0.589-0.241l0.019 0.009 0.019 0.009c-0.37-0.2-0.554-0.469-0.554-0.806 0-0.175 0.050-0.332 0.147-0.469 0.109-0.144 0.253-0.255 0.42-0.322l0.007-0.002c0.186-0.077 0.395-0.116 0.625-0.116 0.232 0 0.439 0.042 0.621 0.127 0.175 0.078 0.318 0.199 0.419 0.351l0.002 0.004c0.095 0.143 0.152 0.319 0.152 0.508 0 0.005-0 0.009-0 0.014v-0.001h-0.67c0.001-0.008 0.001-0.017 0.001-0.026 0-0.127-0.054-0.24-0.14-0.32l-0-0c-0.094-0.084-0.226-0.125-0.395-0.125-0.164 0-0.291 0.035-0.382 0.105-0.083 0.060-0.137 0.156-0.137 0.265v0.007c0 0.106 0.053 0.194 0.159 0.266s0.264 0.138 0.471 0.2c0.381 0.114 0.658 0.257 0.833 0.427s0.261 0.381 0.261 0.634c0 0.281-0.107 0.503-0.32 0.663s-0.499 0.239-0.859 0.239c-0.25 0-0.478-0.046-0.683-0.137-0.192-0.082-0.35-0.21-0.467-0.37l-0.002-0.003-0.002-0.003c-0.1-0.149-0.16-0.333-0.16-0.531 0-0.001 0-0.001 0-0.002v0-0.021h0.671c0 0.358 0.214 0.538 0.643 0.538 0.011 0.001 0.023 0.001 0.036 0.001 0.125 0 0.241-0.036 0.34-0.099l-0.003 0.002c0.081-0.058 0.134-0.152 0.134-0.259 0-0 0-0.001 0-0.001v0-0.012z"></path>
</symbol>
<symbol id="group5" viewBox="0 0 43 32">
<path d="M3.239 26.373c0.155 0.173 0.25 0.402 0.25 0.654 0 0.004-0 0.008-0 0.012v-0.001c0.001 0.016 0.001 0.034 0.001 0.052 0 0.15-0.034 0.293-0.096 0.42l0.002-0.006 0.003-0.006c-0.071 0.151-0.171 0.277-0.294 0.376l-0.002 0.002-0.002 0.002c-0.281 0.194-0.628 0.311-1.003 0.311-0.045 0-0.089-0.002-0.133-0.005l0.006 0h-1.971v-4.214h1.936c0.035-0.002 0.076-0.004 0.117-0.004 0.358 0 0.692 0.107 0.97 0.291l-0.007-0.004-0.007-0.004c0.122 0.093 0.219 0.212 0.286 0.348l0.003 0.006c0.055 0.113 0.087 0.245 0.087 0.385 0 0.018-0.001 0.035-0.002 0.053l0-0.002c0.001 0.012 0.001 0.026 0.001 0.040 0 0.232-0.086 0.443-0.227 0.605l0.001-0.001c-0.15 0.168-0.358 0.283-0.59 0.33 0.262 0.044 0.499 0.172 0.667 0.361zM0.92 25.737h0.828c0.017 0.001 0.037 0.002 0.058 0.002 0.175 0 0.337-0.053 0.471-0.144l-0.003 0.002c0.059-0.049 0.106-0.111 0.139-0.181l0.001-0.003 0.001-0.003c0.024-0.054 0.038-0.117 0.038-0.183 0-0.001 0-0.001 0-0.002v0l-0.002-0.042v0.002l0.001-0.035c0-0 0-0.001 0-0.001 0-0.069-0.015-0.135-0.041-0.194l0.001 0.003 0.001 0.003c-0.032-0.074-0.079-0.137-0.137-0.186l-0.001-0.001-0.001-0.001c-0.133-0.091-0.297-0.145-0.473-0.145-0.025 0-0.050 0.001-0.075 0.003l0.003-0h-0.812v1.106zM2.355 27.353c0.064-0.050 0.115-0.114 0.15-0.187l0.001-0.003 0.001-0.003c0.028-0.058 0.044-0.127 0.044-0.199 0-0.001 0-0.002 0-0.003v0l-0.001-0.035v0.002l0.001-0.031c0-0 0-0 0-0.001 0-0.076-0.017-0.148-0.048-0.212l0.001 0.003 0.001 0.003c-0.037-0.077-0.089-0.142-0.153-0.192l-0.001-0.001-0.001-0.001c-0.141-0.097-0.315-0.154-0.503-0.154-0.022 0-0.043 0.001-0.065 0.002l0.003-0h-0.865v1.16h0.88c0.015 0.001 0.033 0.001 0.051 0.001 0.188 0 0.362-0.055 0.509-0.15l-0.004 0.002zM7.197 28.185l-1.076-1.648h-0.405v1.648h-0.927v-4.215h1.755c0.038-0.003 0.083-0.005 0.128-0.005 0.414 0 0.795 0.138 1.101 0.37l-0.005-0.003-0.005-0.003c0.255 0.234 0.415 0.567 0.42 0.937v0.001c0 0.307-0.109 0.589-0.291 0.808l0.002-0.002c-0.216 0.222-0.501 0.376-0.821 0.426l-0.008 0.001-0.008 0.001 1.147 1.684h-1.008zM5.715 25.963h0.758c0.526 0 0.79-0.212 0.79-0.638l0.001-0.034c0-0 0-0.001 0-0.001 0-0.081-0.017-0.158-0.046-0.228l0.001 0.004 0.001 0.004c-0.036-0.085-0.087-0.158-0.15-0.218l-0-0c-0.143-0.109-0.324-0.175-0.521-0.175-0.028 0-0.055 0.001-0.082 0.004l0.003-0h-0.764l0.009 1.283zM12.262 27.336h-1.846l-0.326 0.849h-0.972l1.695-4.168h1.051l1.689 4.168h-0.971l-0.319-0.848zM12.015 26.698l-0.675-1.779-0.675 1.779h1.349zM18.602 28.185h-0.919l-2.063-2.866v2.866h-0.918v-4.216h0.918l2.063 2.883v-2.883h0.919v4.216zM23.852 27.176c-0.191 0.318-0.48 0.577-0.833 0.744-0.355 0.169-0.772 0.267-1.212 0.267-0.003 0-0.005 0-0.008 0h0l-0.075-0.001h-1.637v-4.215l1.714-0.001c0.441 0 0.859 0.096 1.235 0.267l-0.019-0.008c0.352 0.163 0.642 0.419 0.832 0.735 0.189 0.343 0.288 0.722 0.288 1.106s-0.099 0.763-0.288 1.106zM22.8 27.075c0.25-0.261 0.404-0.616 0.406-1.006 0-0.369-0.144-0.726-0.406-1.006-0.284-0.226-0.647-0.362-1.042-0.362-0.040 0-0.081 0.001-0.12 0.004l0.005-0h-0.634v2.729h0.639c0.032 0.002 0.070 0.003 0.108 0.003 0.398 0 0.763-0.137 1.052-0.367l-0.003 0.003-0.004 0.003zM12.838 0.522s11.873 4.104 11.621 10.043v10.045s-11.864-4.106-11.617-10.045l-0.004-10.043zM35.037 18.259c2.152-1.365 4.719-2.277 7.475-2.54l0.069-0.005v-3.146c-3.12 1.102-5.767 3.098-7.544 5.691z"></path>
<path d="M33.69 19.207c1.835-3.384 5.017-5.995 8.891-7.297v-9.061s-16.909 5.846-16.552 14.304v14.302s0.754-0.261 1.939-0.752c0-0.457 0-0.918 0.054-1.382 0.349-3.926 2.388-7.564 5.667-10.115z"></path>
<path d="M32.082 24.52c0.099-1.081 0.309-2.076 0.619-3.024l-0.027 0.096c-2.043 2.203-3.279 4.936-3.536 7.816-0.025 0.272-0.039 0.543-0.045 0.824 1.484-0.641 2.642-1.211 3.771-1.826l-0.247 0.123-0.273 0.133c-0.202-0.878-0.318-1.886-0.318-2.921 0-0.43 0.020-0.855 0.059-1.275l-0.004 0.054zM32.754 24.571c-0.033 0.35-0.052 0.756-0.052 1.167 0 0.945 0.101 1.866 0.292 2.754l-0.015-0.086-0.015-0.084c4.62-2.531 9.811-6.442 9.61-11.168v-0.412c-3.301 0.338-6.388 1.659-8.79 3.76-0.529 1.175-0.893 2.538-1.022 3.97l-0.004 0.049-0.004 0.051z"></path>
</symbol>
<symbol id="group6" viewBox="0 0 67 32">
<path d="M33.724 15.223c-0.271-0.348-0.435-0.792-0.435-1.274 0-0.051 0.002-0.102 0.005-0.152l-0 0.007v0.006-2.051c0-0.628 0.142-1.106 0.428-1.433 0.284-0.327 0.774-0.489 1.468-0.488 0.652 0 1.116 0.139 1.389 0.417 0.299 0.355 0.444 0.789 0.411 1.226v0.482h-1.166v-0.489c0.001-0.019 0.001-0.042 0.001-0.064 0-0.146-0.013-0.289-0.037-0.428l0.002 0.015c-0.020-0.115-0.080-0.213-0.165-0.282l-0.001-0.001-0.001-0.001c-0.104-0.070-0.233-0.112-0.371-0.112-0.001 0-0.001 0-0.002 0h0l-0.052 0.002h0.002c-0.015-0.001-0.033-0.002-0.052-0.002-0.147 0-0.284 0.045-0.398 0.121l0.003-0.002 0.003-0.002c-0.096 0.077-0.164 0.183-0.192 0.305l-0.001 0.004-0.001 0.004c-0.030 0.14-0.047 0.302-0.047 0.467v2.528c-0.019 0.24 0.033 0.48 0.149 0.698 0.060 0.074 0.137 0.132 0.226 0.167l0.004 0.001 0.004 0.001c0.068 0.027 0.147 0.043 0.23 0.043 0.026 0 0.052-0.002 0.078-0.005l-0.003 0h-0.003c0.015 0.001 0.032 0.002 0.050 0.002 0.137 0 0.263-0.043 0.366-0.117l-0.002 0.001-0.002 0.001c0.089-0.074 0.152-0.178 0.174-0.296l0-0.003v-0.003c0.027-0.165 0.040-0.332 0.036-0.498v-0.505h1.167v0.461c0.003 0.038 0.004 0.081 0.004 0.126 0 0.443-0.155 0.851-0.413 1.171l0.003-0.004 0.003-0.004c-0.268 0.304-0.725 0.457-1.397 0.457s-1.179-0.163-1.466-0.501zM38.583 15.245c-0.295-0.32-0.442-0.784-0.442-1.399v-2.157c0-0.609 0.147-1.070 0.442-1.383s0.787-0.469 1.478-0.467c0.686 0 1.176 0.156 1.471 0.467 0.294 0.313 0.444 0.774 0.444 1.383v2.156c0 0.609-0.149 1.077-0.449 1.398s-0.787 0.481-1.466 0.481-1.181-0.163-1.479-0.479zM40.604 14.727c0.106-0.199 0.154-0.419 0.14-0.638v-2.641c0.001-0.021 0.002-0.046 0.002-0.071 0-0.206-0.053-0.399-0.145-0.568l0.003 0.006 0.003 0.006c-0.061-0.075-0.14-0.133-0.23-0.169l-0.004-0.001-0.004-0.001c-0.067-0.027-0.145-0.043-0.227-0.043-0.030 0-0.060 0.002-0.088 0.006l0.003-0h0.003c-0.024-0.003-0.053-0.005-0.081-0.005-0.083 0-0.163 0.016-0.236 0.045l0.004-0.002 0.004-0.002c-0.096 0.037-0.176 0.095-0.238 0.17l-0.001 0.001-0.001 0.001c-0.107 0.195-0.154 0.41-0.14 0.626v2.652c-0.014 0.22 0.033 0.439 0.14 0.639 0.069 0.067 0.15 0.12 0.241 0.156l0.005 0.002c0.089 0.035 0.192 0.056 0.3 0.056 0.11 0 0.215-0.021 0.311-0.060l-0.006 0.002-0.006 0.002c0.096-0.037 0.178-0.091 0.246-0.158l-0 0v-0.013zM43.381 9.902h1.256l0.944 3.979 0.967-3.979h1.222l0.124 5.743h-0.904l-0.097-3.991-0.932 3.991h-0.725l-0.966-4.006-0.090 4.006h-0.913l0.114-5.743zM49.301 9.902h1.957c1.127 0 1.691 0.543 1.691 1.631 0 1.041-0.594 1.562-1.781 1.56h-0.666v2.552h-1.208l0.007-5.744zM50.973 12.356c0.031 0.004 0.068 0.006 0.105 0.006 0.212 0 0.407-0.071 0.563-0.19l-0.002 0.002c0.112-0.152 0.179-0.342 0.179-0.549 0-0.035-0.002-0.070-0.006-0.105l0 0.004 0.001-0.063c0-0.163-0.022-0.321-0.062-0.471l0.003 0.013c-0.019-0.061-0.050-0.114-0.089-0.158l0 0c-0.041-0.046-0.091-0.084-0.146-0.113l-0.003-0.001-0.003-0.001c-0.14-0.059-0.303-0.094-0.474-0.094-0.001 0-0.002 0-0.003 0h0l-0.066 0.002h-0.466v1.717h0.469zM54.692 9.902h1.297l1.331 5.743h-1.126l-0.263-1.324h-1.157l-0.27 1.324h-1.143l1.331-5.743zM55.8 13.655l-0.452-2.411-0.452 2.411h0.903zM58.394 9.902h0.846l1.618 3.276v-3.276h1.003v5.743h-0.804l-1.628-3.42v3.42h-1.036l0.002-5.743zM64.209 13.454l-1.345-3.545h1.133l0.821 2.278 0.77-2.278h1.109l-1.329 3.546v2.19h-1.159v-2.19zM35.59 18.156v0.3h-0.986v2.334h-0.413v-2.334h-0.991v-0.3h2.389zM38.679 20.79h-0.328c-0 0-0.001 0-0.001 0-0.030 0-0.058-0.009-0.081-0.025l0 0c-0.023-0.015-0.041-0.035-0.052-0.059l-0-0.001v-0.001l-0.285-0.626h-1.367l-0.284 0.626c-0.009 0.028-0.024 0.052-0.044 0.071l-0 0c-0.023 0.016-0.051 0.025-0.081 0.025-0 0-0.001 0-0.001 0h-0.326l1.208-2.634h0.42l1.223 2.624zM36.679 19.812h1.14l-0.484-1.072c-0.030-0.064-0.059-0.142-0.083-0.223l-0.003-0.012-0.003-0.014-0.045 0.14-0.044 0.11-0.478 1.070zM40.762 20.531c0.076 0.004 0.151 0.004 0.228 0 0.073-0.007 0.139-0.018 0.203-0.033l-0.010 0.002c0.059-0.012 0.117-0.028 0.174-0.048 0.053-0.018 0.107-0.042 0.161-0.065v-0.592h-0.487c-0 0-0 0-0 0-0.023 0-0.044-0.008-0.061-0.022l0 0c-0.008-0.006-0.014-0.013-0.018-0.021l-0-0c-0.004-0.007-0.006-0.015-0.006-0.023 0-0 0-0.001 0-0.001v0-0.205h0.937v1.010c-0.143 0.090-0.308 0.162-0.483 0.208l-0.013 0.003-0.013 0.003c-0.1 0.026-0.2 0.043-0.302 0.055-0.104 0.010-0.225 0.016-0.347 0.016-0.002 0-0.004 0-0.006 0h-0.015c-0.212 0-0.416-0.036-0.606-0.102l0.013 0.004c-0.187-0.065-0.349-0.159-0.488-0.279l0.002 0.002 0.002 0.002c-0.127-0.113-0.231-0.248-0.305-0.401l-0.003-0.008-0.003-0.008c-0.070-0.155-0.111-0.335-0.111-0.526 0-0.001 0-0.002 0-0.004v0-0.034c0-0.193 0.040-0.377 0.112-0.543l-0.003 0.009c0.069-0.156 0.176-0.299 0.311-0.417 0.138-0.119 0.302-0.211 0.484-0.273 0.206-0.068 0.427-0.101 0.647-0.098 0.112 0 0.225 0.007 0.336 0.023 0.198 0.029 0.376 0.089 0.538 0.176l-0.009-0.004c0.074 0.041 0.144 0.087 0.211 0.137l-0.116 0.163c-0.010 0.015-0.023 0.027-0.038 0.035l-0.001 0h-0.001c-0.016 0.009-0.034 0.014-0.054 0.014-0 0-0.001 0-0.001 0h0c-0.028-0.001-0.053-0.008-0.076-0.021l0.001 0h0.001c-0.052-0.024-0.093-0.046-0.133-0.070l0.007 0.004 0.007 0.004c-0.043-0.024-0.094-0.047-0.146-0.067l-0.008-0.002-0.008-0.002c-0.059-0.021-0.13-0.041-0.203-0.055l-0.010-0.002-0.009-0.001c-0.085-0.015-0.183-0.023-0.283-0.023-0.003 0-0.005 0-0.008 0h-0.031c-0.162 0-0.317 0.027-0.462 0.076l0.010-0.003c-0.138 0.047-0.256 0.118-0.357 0.209l0.001-0.001c-0.093 0.088-0.169 0.195-0.22 0.315l-0.002 0.006-0.002 0.006c-0.051 0.13-0.081 0.282-0.081 0.44 0 0.161 0.031 0.315 0.087 0.456l-0.003-0.008-0.003-0.008c0.058 0.131 0.14 0.242 0.241 0.331l0.001 0.001c0.099 0.090 0.219 0.161 0.352 0.208 0.154 0.046 0.316 0.063 0.479 0.052zM44.612 20.49h1.319v0.3h-1.722v-2.634h0.412l-0.009 2.334zM47.303 20.79h-0.412v-2.634h0.412v2.634zM48.84 18.169c0.025 0.012 0.046 0.028 0.063 0.047l0 0 1.766 1.985-0.002-0.047 0.002-0.049v0.002-1.963h0.36v2.645h-0.222c-0.028-0-0.054-0.006-0.078-0.017l0.001 0h0.001c-0.025-0.013-0.047-0.030-0.065-0.050l-0-0-1.764-1.984v2.048h-0.346v-2.634h0.215c0.023 0 0.047 0.004 0.068 0.012zM54.070 18.156v0.289h-1.463v0.87h1.186v0.279h-1.186v0.9h1.463v0.289h-1.889v-2.628h1.889zM10.782 1.889l18.343 4.496v15.757l-18.343-4.494v-15.76zM9.605 0.545v17.868l20.693 5.075v-17.866l-20.693-5.076z"></path>
<path d="M20.696 31.781l-20.696-5.079v-17.865l20.696 5.077v17.867z"></path>
<path d="M9.948 1.686l18.103 4.44-7.698 6.649-18.107-4.442 7.702-6.647zM9.605 0.545l-9.605 8.292 20.696 5.077 9.603-8.294-20.693-5.075zM21.86 30.776l8.439-7.288-8.439-2.069v9.358z"></path>
</symbol>
<symbol id="instagram" viewBox="0 0 32 32">
<path d="M31.968 9.408c-0.074-1.701-0.349-2.869-0.742-3.882-0.425-1.111-1.054-2.057-1.849-2.836l-0.001-0.001-0.001-0.001c-0.767-0.779-1.692-1.399-2.725-1.808l-0.053-0.019-0.054-0.018c-1.019-0.394-2.181-0.667-3.882-0.742-1.712-0.082-2.256-0.101-6.602-0.101-4.344 0-4.888 0.019-6.595 0.094-1.699 0.074-2.869 0.349-3.88 0.742-1.111 0.425-2.058 1.054-2.838 1.849l-0.001 0.001-0.001 0.001c-0.778 0.767-1.398 1.692-1.806 2.725l-0.019 0.053-0.018 0.054c-0.395 1.019-0.669 2.181-0.744 3.882-0.082 1.712-0.101 2.256-0.101 6.602 0 4.344 0.019 4.888 0.094 6.595 0.075 1.701 0.35 2.869 0.744 3.882 0.427 1.11 1.056 2.056 1.848 2.836l0.001 0.001 0.001 0.001c0.8 0.813 1.77 1.443 2.832 1.843 1.019 0.395 2.182 0.67 3.882 0.744 1.707 0.075 2.251 0.094 6.595 0.094 4.346 0 4.89-0.019 6.595-0.094 1.701-0.074 2.869-0.349 3.882-0.742 2.137-0.848 3.8-2.5 4.644-4.573l0.020-0.055 0.019-0.055c0.394-1.019 0.669-2.182 0.744-3.882 0.075-1.707 0.093-2.251 0.093-6.595s-0.006-4.888-0.080-6.595zM29.088 22.474c-0.070 1.563-0.333 2.406-0.55 2.97-0.55 1.386-1.623 2.465-2.968 3.011l-0.036 0.013-0.036 0.012c-0.56 0.219-1.411 0.482-2.968 0.55-1.688 0.075-2.194 0.094-6.464 0.094-4.269 0-4.782-0.019-6.464-0.094-1.563-0.069-2.406-0.331-2.97-0.55-0.72-0.27-1.333-0.676-1.835-1.191l-0.001-0.001-0.001-0.001c-0.509-0.495-0.912-1.097-1.172-1.769l-0.012-0.034-0.011-0.034c-0.218-0.563-0.48-1.413-0.549-2.97-0.075-1.688-0.094-2.195-0.094-6.464 0-4.27 0.019-4.784 0.094-6.464 0.069-1.563 0.331-2.406 0.549-2.97 0.269-0.721 0.678-1.335 1.197-1.836l0.001-0.001 0.002-0.002c0.496-0.509 1.099-0.911 1.772-1.17l0.034-0.012 0.034-0.011c0.56-0.219 1.411-0.48 2.968-0.55 1.688-0.074 2.195-0.093 6.464-0.093 4.275 0 4.782 0.019 6.464 0.093 1.563 0.069 2.406 0.331 2.97 0.55 0.721 0.269 1.335 0.676 1.836 1.193l0.001 0.001c0.531 0.52 0.938 1.144 1.195 1.84 0.218 0.56 0.48 1.411 0.549 2.968 0.075 1.688 0.094 2.194 0.094 6.464 0 4.269-0.019 4.768-0.094 6.458z"></path>
<path d="M16.059 7.782c-4.539 0.002-8.218 3.682-8.219 8.221v0c0.099 4.465 3.742 8.046 8.221 8.046 4.476 0 8.117-3.577 8.221-8.028l0-0.010v-0.009c-0.001-4.54-3.681-8.22-8.221-8.221h-0zM16.059 21.334c-2.945-0-5.332-2.388-5.332-5.333s2.388-5.333 5.333-5.333c0 0 0 0 0.001 0h0.001c2.946 0 5.334 2.388 5.334 5.334s-2.388 5.334-5.334 5.334v0zM26.525 7.458c0 1.060-0.86 1.92-1.92 1.92s-1.92-0.86-1.92-1.92v0c0-1.060 0.86-1.92 1.92-1.92s1.92 0.86 1.92 1.92v0z"></path>
</symbol>
<symbol id="linkedin" viewBox="0 0 32 32">
<path d="M31.992 32h0.008v-11.738c0-5.741-1.237-10.163-7.947-10.163-3.227 0-5.392 1.77-6.277 3.45h-0.093v-2.914h-6.365v21.363h6.627v-10.578c0-2.786 0.528-5.48 3.978-5.48 3.398 0 3.448 3.179 3.448 5.658v10.402h6.621zM0.528 10.635h6.635v21.365h-6.635v-21.365zM3.843 0c-2.122 0-3.843 1.721-3.843 3.843v0c0 2.12 1.722 3.878 3.843 3.878 2.12 0 3.842-1.757 3.842-3.878s-1.72-3.841-3.841-3.843z"></path>
</symbol>
<symbol id="mail" viewBox="0 0 43 32">
<path d="M38.667 0h-34.667c-2.205 0-4 1.795-4 4v24c0 2.205 1.795 4 4 4h34.667c2.205 0 4-1.795 4-4v-24c0-2.205-1.795-4-4-4zM38.667 2.667c0.181 0 0.355 0.037 0.512 0.104l-17.845 15.467-17.845-15.467c0.151-0.065 0.327-0.104 0.512-0.104h34.667zM38.667 29.333h-34.667c-0.736 0-1.333-0.597-1.333-1.333v0-22.413l17.792 15.421c0.233 0.203 0.539 0.327 0.875 0.327s0.642-0.124 0.876-0.328l-0.002 0.001 17.792-15.421v22.413c0 0.736-0.597 1.333-1.333 1.333z"></path>
</symbol>
<symbol id="tel" viewBox="0 0 20 32">
<path d="M17 0h-14c-1.654 0-3 1.346-3 3v26c0 1.654 1.346 3 3 3h14c1.654 0 3-1.346 3-3v-26c0-1.654-1.346-3-3-3zM3 2h14c0.552 0 1 0.448 1 1v0 21h-16v-21c0-0.552 0.448-1 1-1v0zM17 30h-14c-0.552 0-1-0.448-1-1v0-3h16v3c0 0.552-0.448 1-1 1v0z"></path>
<path d="M4.708 27.478c0.18 0.163 0.293 0.398 0.293 0.66s-0.112 0.496-0.292 0.658l-0.001 0.001-0.001 0.001c-0.186 0.171-0.435 0.276-0.708 0.276s-0.523-0.105-0.709-0.276l0.001 0.001 0.001 0.001c-0.18-0.163-0.293-0.398-0.293-0.66s0.112-0.496 0.292-0.658l0.001-0.001 0.001-0.001c0.186-0.171 0.435-0.276 0.709-0.276s0.523 0.105 0.709 0.276l-0.001-0.001-0.001-0.001z"></path>
</symbol>
<symbol id="twitter" viewBox="0 0 36 32">
<path d="M35.556 4.976c-1.222 0.548-2.64 0.952-4.125 1.142l-0.076 0.008c1.495-0.901 2.621-2.282 3.178-3.926l0.015-0.051 0.015-0.051c-1.303 0.793-2.82 1.399-4.437 1.732l-0.185 0.032c-1.333-1.421-3.223-2.306-5.319-2.306-4.024 0-7.287 3.262-7.287 7.287 0 0 0 0 0 0v0 0.004c0 0.578 0.048 1.134 0.169 1.662-6.060-0.295-11.422-3.2-15.024-7.623-0.63 1.053-1.003 2.323-1.003 3.68 0 0 0 0.001 0 0.001v0.001c0.003 2.514 1.276 4.73 3.211 6.043l0.026 0.016c-1.227-0.032-2.369-0.367-3.362-0.934l0.035 0.018 0.036 0.019v0.080c0.005 3.498 2.462 6.421 5.743 7.143l0.049 0.009 0.048 0.009c-0.549 0.152-1.178 0.24-1.829 0.24-0.009 0-0.018-0-0.027-0h-0.057c-0.466 0-0.937-0.027-1.38-0.124 0.944 2.887 3.623 5.010 6.811 5.077-2.449 1.939-5.584 3.111-8.992 3.111-0.012 0-0.023 0-0.035-0h-0.080c-0.59 0-1.172-0.038-1.743-0.11l0.068 0.007c3.14 2.051 6.986 3.271 11.116 3.271h0.066c13.413 0 20.747-11.111 20.747-20.743 0-0.32-0.011-0.633-0.027-0.942 1.425-1.030 2.626-2.265 3.587-3.676l0.033-0.051 0.033-0.052z"></path>
</symbol>
<symbol id="Vector" viewBox="0 0 32 32">
<path d="M32 3.223l-3.223-3.223-12.777 12.777-12.777-12.777-3.223 3.223 12.777 12.777-12.777 12.777 3.223 3.223 12.777-12.777 12.777 12.777 3.223-3.223-12.777-12.777 12.777-12.777z"></path>
</symbol>
<symbol id="modal-mail" viewBox="0 0 32 32">
<path d="M26.667 5.333h-21.333c-1.467 0-2.652 1.2-2.652 2.667l-0.014 16c0 1.467 1.2 2.667 2.667 2.667h21.333c1.467 0 2.667-1.2 2.667-2.667v-16c0-1.467-1.2-2.667-2.667-2.667zM26.133 11.001l-9.426 5.892c-0.201 0.126-0.446 0.2-0.708 0.2s-0.506-0.075-0.713-0.204l0.006 0.003-9.426-5.892c-0.336-0.201-0.557-0.562-0.557-0.975 0-0.625 0.507-1.132 1.132-1.132 0.233 0 0.449 0.070 0.629 0.19l-0.004-0.003 8.933 5.586 8.933-5.588c0.176-0.118 0.392-0.188 0.624-0.188 0.625 0 1.132 0.507 1.132 1.132 0 0.413-0.221 0.775-0.552 0.972l-0.005 0.003z"></path>
</symbol>
<symbol id="modal-person" viewBox="0 0 32 32">
<path d="M16 16c2.946 0 5.333-2.388 5.333-5.333s-2.388-5.333-5.333-5.333v0c-2.946 0-5.333 2.388-5.333 5.333s2.388 5.333 5.333 5.333v0zM16 18.667c-3.561 0-10.667 1.787-10.667 5.333v1.333c0 0.732 0.599 1.333 1.333 1.333h18.667c0.732 0 1.333-0.601 1.333-1.333v-1.333c0-3.547-7.108-5.333-10.667-5.333z"></path>
</symbol>
<symbol id="modal-tel" viewBox="0 0 32 32">
<path d="M24.882 19.774l-3.268-0.373c-0.090-0.011-0.194-0.018-0.3-0.018-0.707 0-1.347 0.287-1.81 0.75l-2.368 2.368c-3.669-1.894-6.585-4.81-8.427-8.372l-0.051-0.108 2.382-2.377c0.463-0.463 0.75-1.103 0.75-1.81 0-0.106-0.006-0.21-0.019-0.312l0.001 0.012-0.373-3.243c-0.155-1.287-1.24-2.276-2.557-2.276-0.001 0-0.002 0-0.003 0h-2.226c-1.454 0-2.663 1.209-2.574 2.661 0.683 10.987 9.47 19.762 20.444 20.444 1.452 0.089 2.663-1.12 2.663-2.574v-2.226c0-0.004 0-0.008 0-0.012 0-1.308-0.985-2.386-2.253-2.532l-0.012-0.001z"></path>
</symbol>
<symbol id="send" viewBox="0 0 32 32">
<path fill="#fff" style="fill: var(--color1, #fff)" d="M32 0l-32 18 10.227 3.787 15.773-14.787-11.997 16.187 0.009 0.003-0.012-0.003v8.813l5.735-6.691 7.267 2.691 4.999-28z"></path>
</symbol>
<symbol id="vector" viewBox="0 0 42 32">
<path d="M6.263 15.205l-0.22-0.21-3.307 3.132 11.651 11.114 24.477-23.351-3.285-3.134-21.192 20.197-8.124-7.75z"></path>
</symbol>
<symbol id="menu_24px" viewBox="0 0 48 32">
<path d="M0 5.333v-5.333h48v5.333h-48zM0 18.667h48v-5.333h-48v5.333zM0 32h48v-5.333h-48v5.333z"></path>
</symbol>
</defs>
</svg>